<?xml version="1.0" standalone="no"?>
<!DOCTYPE svg PUBLIC "-//W3C//DTD SVG 20010904//EN"
 "http://www.w3.org/TR/2001/REC-SVG-20010904/DTD/svg10.dtd">
<svg version="1.0" xmlns="http://www.w3.org/2000/svg"
 width="512.000000pt" height="512.000000pt" viewBox="0 0 512.000000 512.000000"
 preserveAspectRatio="xMidYMid meet">
<metadata>
Created by potrace 1.11, written by Peter Selinger 2001-2013
</metadata>
<g transform="translate(0.000000,512.000000) scale(0.100000,-0.100000)"
fill="#000000" stroke="none">
<path d="M1354 4372 c-102 -2 -114 -5 -138 -27 -18 -16 -26 -35 -26 -57 0 -18
-2 -235 -3 -483 l-2 -450 -55 0 -55 0 -3 85 c-2 46 -5 86 -7 88 -2 2 -108 4
-235 4 -288 0 -273 8 -276 -144 -2 -127 0 -118 -23 -118 -30 0 -70 -38 -82
-79 -9 -31 -8 -44 5 -73 16 -33 61 -68 88 -68 11 0 13 -36 13 -187 -1 -181 0
-189 22 -210 21 -22 82 -33 84 -15 1 4 2 72 3 152 1 134 3 148 26 190 17 29
40 53 69 69 l44 24 1757 0 1758 0 46 -27 c76 -45 90 -82 92 -257 0 -80 4 -151
7 -156 10 -15 64 -3 84 19 16 18 18 41 18 209 0 152 3 189 13 189 26 0 72 34
86 65 8 16 13 45 11 63 -3 41 -49 92 -82 92 -13 0 -23 3 -24 8 -1 4 -2 54 -3
111 -2 95 -4 105 -25 122 -13 11 -38 19 -57 20 -19 0 -124 1 -234 2 -194 2
-200 1 -201 -18 0 -11 -1 -51 -2 -90 l-2 -70 -55 0 -55 0 -2 469 c-1 257 -4
478 -7 491 -3 12 -17 30 -31 39 -22 15 -133 16 -1227 19 -662 1 -1253 1 -1314
-1z m2435 -150 c4 -6 7 -204 6 -439 l0 -428 -95 0 c-94 0 -95 0 -97 25 0 14
-1 30 -2 35 -1 7 -346 10 -1045 10 l-1043 0 -1 -27 c0 -15 -3 -31 -6 -36 -2
-4 -44 -7 -93 -7 l-88 0 0 435 0 435 29 5 c17 3 569 5 1229 4 898 0 1200 -3
1206 -12z"/>
<path d="M1516 3980 c-1 -3 -2 -25 -2 -50 l1 -45 1041 -3 1042 -2 4 34 c2 19
1 43 -3 53 -6 17 -48 18 -1043 18 -571 0 -1039 -2 -1040 -5z"/>
<path d="M1514 3695 c-2 -5 -3 -28 -1 -50 l2 -40 1043 -3 1042 -2 0 53 0 53
-1041 -1 c-695 0 -1043 -3 -1045 -10z"/>
<path d="M816 2955 c-23 -11 -58 -73 -50 -87 3 -5 7 -475 7 -1043 2 -1029 2
-1035 23 -1055 l20 -21 1738 0 c1921 0 1780 -5 1790 63 3 18 4 493 3 1055 -1
561 2 1019 6 1016 15 -9 -21 53 -38 67 -14 11 -121 14 -596 14 -318 1 -578 -3
-576 -7 1 -4 69 -75 152 -158 l149 -149 -50 -51 c-73 -75 -208 -174 -299 -219
-90 -44 -195 -85 -240 -94 -17 -3 -61 -12 -100 -20 -91 -18 -299 -18 -400 1
-229 43 -438 150 -603 309 l-77 74 148 147 c82 82 147 152 145 157 -4 14
-1125 14 -1152 1z m1820 -926 c34 -28 34 -101 0 -135 -56 -56 -158 -16 -158
62 0 82 95 126 158 73z m408 -9 c31 -30 28 -93 -6 -127 -43 -42 -123 -30 -147
24 -46 100 75 182 153 103z m401 -2 c60 -71 -2 -170 -91 -147 -84 23 -95 131
-17 170 42 21 77 14 108 -23z m-2033 21 c11 -6 26 -26 34 -45 13 -31 13 -39
-2 -70 -16 -34 -55 -61 -84 -58 -8 1 -20 2 -26 3 -6 0 -23 12 -38 26 -78 72
20 195 116 144z m417 -13 c12 -13 24 -39 27 -58 5 -27 1 -40 -21 -66 -22 -27
-34 -32 -68 -32 -23 0 -49 6 -58 13 -45 34 -48 100 -7 144 30 32 96 32 127 -1z
m392 11 c45 -34 52 -102 14 -140 -33 -32 -67 -38 -108 -18 -61 31 -71 103 -19
149 28 25 86 30 113 9z m1616 -4 c47 -43 45 -116 -3 -148 -36 -23 -55 -25 -92
-9 -90 37 -61 174 36 174 24 0 48 -7 59 -17z m-2658 -273 c22 0 53 -43 58 -77
11 -86 -87 -136 -154 -79 -65 56 -6 182 75 160 8 -2 17 -4 21 -4z m418 -10
c58 -35 61 -120 5 -156 -72 -47 -165 17 -141 99 13 46 38 66 99 76 3 1 19 -8
37 -19z m410 -5 c47 -31 52 -96 10 -142 -15 -17 -32 -23 -63 -23 -35 0 -47 5
-68 31 -42 50 -28 121 28 144 35 15 59 12 93 -10z m416 -12 c51 -50 24 -131
-49 -152 -87 -24 -148 95 -81 156 42 39 86 37 130 -4z m366 27 c14 0 50 -37
59 -60 22 -58 -23 -120 -88 -120 -100 0 -130 135 -38 175 18 8 39 12 46 10 8
-3 17 -5 21 -5z m438 -24 c29 -27 36 -71 17 -107 -29 -57 -102 -68 -147 -21
-84 88 43 213 130 128z m389 13 c63 -33 55 -128 -14 -163 -82 -40 -167 66
-111 138 35 44 75 52 125 25z m396 2 c55 -21 67 -99 22 -144 -32 -32 -52 -37
-95 -23 -72 23 -85 119 -20 163 33 22 45 23 93 4z m-2609 -302 c53 -24 67
-103 26 -145 -14 -14 -41 -27 -62 -31 -31 -5 -40 -1 -67 25 -76 77 5 196 103
151z m401 1 c14 -5 33 -24 42 -41 13 -27 14 -39 5 -70 -24 -79 -129 -90 -166
-18 -19 36 -19 53 1 90 22 44 67 59 118 39z m434 -25 c44 -51 17 -136 -49
-150 -102 -23 -159 112 -71 168 37 24 90 15 120 -18z m393 7 c25 -22 31 -36
31 -67 0 -53 -49 -98 -100 -91 -86 11 -114 112 -45 166 36 28 77 25 114 -8z
m395 10 c60 -48 52 -134 -15 -162 -57 -23 -118 11 -128 72 -12 81 82 140 143
90z m415 -11 c41 -42 40 -92 -2 -132 -50 -46 -115 -34 -144 28 -44 93 73 177
146 104z m382 18 c34 -16 51 -52 48 -102 -2 -29 -59 -77 -92 -77 -31 0 -87 44
-90 70 -4 41 4 64 30 91 31 31 64 36 104 18z m-285 -334 c35 -29 44 -73 25
-113 -27 -57 23 -54 -1007 -53 -912 1 -952 1 -976 19 -33 25 -46 73 -30 111
26 63 -20 60 1017 61 l942 0 29 -25z"/>
</g>
</svg>
